<svg id="Capa_1" enable-background="new 0 0 512 512" height="512" viewBox="0 0 512 512" width="512" xmlns="http://www.w3.org/2000/svg"><path d="m414.7 134.615-154.482 69.314c-2.683 1.204-5.752 1.204-8.434 0l-154.483-69.314c2.102-3.049 5.027-5.522 8.53-7.098l141.732-63.603c.051-.021.093-.041.144-.062 5.285-2.328 11.301-2.328 16.586 0 .051.021.093.041.144.062l141.732 63.603c3.503 1.577 6.429 4.049 8.531 7.098z" fill="#a1e42c"/><path d="m97.301 134.615c-2.328 3.369-3.647 7.438-3.647 11.703v183.537c0 8.107 4.77 15.473 12.177 18.79l141.732 63.603c.051.021.093.041.144.062.021.01.041.021.062.021 2.627 1.154 5.429 1.72 8.231 1.72v-209.22c-1.438 0-2.876-.301-4.217-.903z" fill="#b9ea6a"/><path d="m414.7 134.615-154.482 69.314c-1.341.602-2.779.903-4.217.903v209.22c2.823 0 5.645-.577 8.293-1.741.051-.021.093-.041.144-.062l141.732-63.603c7.407-3.317 12.177-10.683 12.177-18.79v-183.538c0-4.265-1.319-8.334-3.647-11.703z" fill="#89c627"/><path d="m485.45 283.97c-14.673-15.802-34.842-29.613-59.947-41.048-2.348-1.07-4.742-2.108-7.162-3.129v51.946c24.207 15.111 38.504 33.726 38.504 53.865 0 31.378-34.682 59.065-87.535 75.545-5.022 1.566-5.931 8.281-1.495 11.109l31.74 20.244c3.891 2.482 8.745 2.968 13.035 1.268 4.415-1.749 8.724-3.577 12.913-5.485 25.105-11.435 45.274-25.246 59.947-41.048 17.369-18.706 26.55-40.018 26.55-61.634 0-21.614-9.181-42.927-26.55-61.633z" fill="#fcdd2e"/><path d="m338.122 450.35-66.28-42.274c-6.858-4.374-15.842.552-15.842 8.686v20.33c-110.924 0-200.846-40.96-200.846-91.487 0-20.139 14.297-38.754 38.504-53.865v-51.946c-2.42 1.021-4.814 2.059-7.162 3.129-25.105 11.435-45.274 25.246-59.947 41.048-17.368 18.705-26.549 40.018-26.549 61.634s9.181 42.929 26.55 61.634c14.673 15.802 34.842 29.613 59.947 41.048 46.155 21.024 106.353 32.602 169.503 32.602v20.42c0 8.134 8.984 13.059 15.842 8.686l66.28-42.274c6.35-4.05 6.35-13.321 0-17.371z" fill="#fbe77b"/><g fill="#7db723"><path d="m368.395 202.664c-2.951 0-5.768-1.699-7.054-4.565-1.747-3.893-.007-8.465 3.886-10.212l27.057-12.141c3.893-1.747 8.466-.007 10.212 3.886 1.747 3.893.007 8.465-3.886 10.212l-27.057 12.141c-1.026.461-2.101.679-3.158.679z"/><path d="m368.395 238.179c-2.951 0-5.768-1.699-7.054-4.565-1.747-3.893-.007-8.465 3.886-10.212l27.057-12.141c3.893-1.747 8.466-.007 10.212 3.886 1.747 3.893.007 8.465-3.886 10.212l-27.056 12.141c-1.027.461-2.102.679-3.159.679z"/><path d="m351.366 304.667c-3.892-1.745-8.465-.007-10.212 3.886s-.007 8.465 3.886 10.212l10.184 4.57c1.027.461 2.101.679 3.158.679 2.95 0 5.768-1.699 7.054-4.565 1.747-3.893.007-8.465-3.886-10.212z"/><path d="m383.616 319.138c-3.892-1.745-8.465-.007-10.212 3.886s-.007 8.465 3.886 10.212l10.184 4.57c1.027.461 2.101.679 3.158.679 2.95 0 5.768-1.699 7.054-4.565 1.747-3.893.007-8.465-3.886-10.212z"/><path d="m417.812 334.481-1.947-.876c-3.895-1.741-8.459 0-10.21 3.894-1.628 3.605-.247 7.798 3.069 9.776.004-.003.009-.005.013-.007 1.582-.995 4.227-2.955 6.372-6.311 1.591-2.49 2.334-4.851 2.703-6.476z"/><path d="m258.476 279.923c1.027.461 2.102.679 3.159.679 2.95 0 5.768-1.699 7.054-4.565 1.747-3.893.007-8.465-3.886-10.213l-5.639-2.531c-1.006-.451-2.085-.677-3.163-.677v16.195z"/><path d="m319.118 290.196c-3.893-1.745-8.465-.007-10.213 3.886-1.747 3.893-.007 8.466 3.886 10.213l10.184 4.57c1.027.461 2.102.679 3.159.679 2.95 0 5.768-1.699 7.054-4.565 1.747-3.893.007-8.466-3.886-10.213z"/><path d="m280.542 289.824 10.184 4.57c1.027.461 2.101.679 3.158.679 2.95 0 5.768-1.699 7.054-4.565 1.747-3.893.007-8.465-3.886-10.212l-10.184-4.57c-3.892-1.745-8.465-.007-10.212 3.886-1.747 3.892-.007 8.465 3.886 10.212z"/></g><path d="m153.617 324.014c1.057 0 2.132-.218 3.159-.679l10.184-4.57c3.893-1.747 5.633-6.319 3.886-10.213-1.747-3.893-6.318-5.634-10.213-3.886l-10.184 4.57c-3.893 1.747-5.633 6.319-3.886 10.213 1.287 2.867 4.104 4.565 7.054 4.565z" fill="#a1e42c"/><path d="m121.368 338.485c1.057 0 2.132-.218 3.158-.679l10.184-4.57c3.893-1.747 5.633-6.319 3.886-10.212-1.746-3.892-6.32-5.633-10.212-3.886l-10.184 4.57c-3.893 1.747-5.633 6.319-3.886 10.212 1.286 2.866 4.103 4.565 7.054 4.565z" fill="#a1e42c"/><path d="m103.265 347.268c.004.003.009.005.013.007 3.315-1.978 4.695-6.171 3.068-9.776-1.741-3.894-6.315-5.635-10.209-3.894l-1.947.876c.387 1.683 1.25 4.468 3.311 7.351 2.018 2.822 4.313 4.522 5.764 5.436z" fill="#a1e42c"/><path d="m185.866 309.543c1.057 0 2.132-.218 3.158-.679l10.184-4.57c3.893-1.747 5.633-6.319 3.886-10.212-1.746-3.892-6.32-5.633-10.212-3.886l-10.184 4.57c-3.893 1.747-5.633 6.319-3.886 10.212 1.287 2.866 4.104 4.565 7.054 4.565z" fill="#a1e42c"/><path d="m225.132 275.725-10.184 4.57c-3.893 1.747-5.633 6.319-3.886 10.212 1.286 2.866 4.103 4.565 7.054 4.565 1.057 0 2.132-.218 3.158-.679l10.184-4.57c3.893-1.747 5.633-6.319 3.886-10.212-1.747-3.892-6.318-5.634-10.212-3.886z" fill="#a1e42c"/><path d="m252.837 263.293-5.639 2.531c-3.893 1.747-5.633 6.319-3.886 10.213 1.747 3.893 6.317 5.633 10.213 3.886l2.476-1.111v-16.195c-1.08 0-2.158.225-3.164.676z" fill="#a1e42c"/><path d="m256 182.129c-4.267 0-7.726-3.459-7.726-7.726v-11.339c0-4.267 3.459-7.726 7.726-7.726s7.726 3.459 7.726 7.726v11.339c.001 4.267-3.459 7.726-7.726 7.726zm0-35.906c-4.267 0-7.726-3.459-7.726-7.726v-11.339c0-4.267 3.459-7.726 7.726-7.726s7.726 3.459 7.726 7.726v11.339c.001 4.267-3.459 7.726-7.726 7.726zm0-35.907c-4.267 0-7.726-3.459-7.726-7.726v-11.339c0-4.267 3.459-7.726 7.726-7.726s7.726 3.459 7.726 7.726v11.339c.001 4.267-3.459 7.726-7.726 7.726z" fill="#89c627"/><path d="m260.217 203.929 3.509-1.574v-3.06c0-4.231-3.26-7.92-7.489-8.047-4.376-.131-7.964 3.377-7.964 7.723v3.384l3.509 1.574c2.684 1.204 5.753 1.204 8.435 0z" fill="#89c627"/><path d="m263.727 67.967v-4.33c-4.959-2.012-10.494-2.012-15.453 0v4.006c0 4.231 3.26 7.92 7.489 8.047 4.375.131 7.964-3.377 7.964-7.723z" fill="#89c627"/><path d="m382.266 52.684-5.189-32.894c-.664-4.215-4.625-7.092-8.836-6.428-4.215.664-7.093 4.621-6.428 8.836l2.107 13.356c-26.11-18.077-65.351-35.182-107.92-35.182s-81.81 17.105-107.92 35.181l2.107-13.356c.665-4.215-2.213-8.171-6.428-8.836-4.216-.664-8.172 2.212-8.836 6.428l-5.189 32.894c-.319 2.024.179 4.092 1.384 5.749 1.206 1.657 3.02 2.768 5.044 3.087l32.894 5.188c.408.064.813.096 1.213.096 3.736 0 7.022-2.716 7.622-6.524.665-4.215-2.213-8.171-6.428-8.836l-15.627-2.465c25.202-17.692 62.627-33.153 100.164-33.153s74.962 15.461 100.163 33.154l-15.627 2.465c-4.215.664-7.093 4.62-6.428 8.836.6 3.807 3.886 6.524 7.622 6.524.4 0 .806-.031 1.213-.096l32.894-5.188c2.024-.319 3.839-1.429 5.044-3.087 1.207-1.657 1.705-3.725 1.385-5.749z" fill="#818181"/></svg>