<svg id="piano" enable-background="new 0 0 300 300" height="512" viewBox="0 0 300 300" width="512" xmlns="http://www.w3.org/2000/svg"><g><circle cx="172" cy="128" fill="#ffded5" r="90"/><g fill="#4c241d"><path d="m102 46c-2.211 0-4-1.791-4-4v-8c0-2.209 1.789-4 4-4s4 1.791 4 4v8c0 2.209-1.789 4-4 4z"/><path d="m102 70c-2.211 0-4-1.791-4-4v-8c0-2.209 1.789-4 4-4s4 1.791 4 4v8c0 2.209-1.789 4-4 4z"/><path d="m94 54h-8c-2.211 0-4-1.791-4-4s1.789-4 4-4h8c2.211 0 4 1.791 4 4s-1.789 4-4 4z"/><path d="m118 54h-8c-2.211 0-4-1.791-4-4s1.789-4 4-4h8c2.211 0 4 1.791 4 4s-1.789 4-4 4z"/><path d="m208 270c-7.719 0-14-6.281-14-14s6.281-14 14-14 14 6.281 14 14-6.281 14-14 14zm0-20c-3.309 0-6 2.691-6 6s2.691 6 6 6 6-2.691 6-6-2.691-6-6-6z"/><circle cx="216.96" cy="45.948" r="4.276"/><path d="m154.652 83.348c-1.023 0-2.047-.391-2.828-1.172-1.562-1.562-1.562-4.094 0-5.656l14.695-14.695c1.562-1.562 4.094-1.562 5.656 0s1.562 4.094 0 5.656l-14.695 14.695c-.781.781-1.804 1.172-2.828 1.172z"/><path d="m169.348 83.348c-1.023 0-2.047-.391-2.828-1.172l-14.696-14.696c-1.562-1.562-1.562-4.094 0-5.656s4.094-1.562 5.656 0l14.695 14.695c1.562 1.562 1.562 4.094 0 5.656-.78.782-1.804 1.173-2.827 1.173z"/></g><g><path d="m254.732 234h-209.464c-6.223 0-11.268-5.045-11.268-11.268v-109.464c0-6.223 5.045-11.268 11.268-11.268h209.465c6.223 0 11.268 5.045 11.268 11.268v109.465c-.001 6.222-5.046 11.267-11.269 11.267z" fill="#9dc1e4"/><path d="m254.73 238h-209.46c-8.418 0-15.27-6.85-15.27-15.268v-109.464c0-8.418 6.852-15.268 15.27-15.268h209.46c8.418 0 15.27 6.85 15.27 15.268v109.465c0 8.417-6.852 15.267-15.27 15.267zm-209.46-132c-4.008 0-7.27 3.26-7.27 7.268v109.465c0 4.008 3.262 7.268 7.27 7.268h209.46c4.008 0 7.27-3.26 7.27-7.268v-109.465c0-4.008-3.262-7.268-7.27-7.268z" fill="#4c241d"/></g><g><path d="m54 154h192v80h-192z" fill="#fff"/><path d="m246 238h-192c-2.211 0-4-1.791-4-4v-80c0-2.209 1.789-4 4-4h192c2.211 0 4 1.791 4 4v80c0 2.209-1.789 4-4 4zm-188-8h184v-72h-184z" fill="#4c241d"/></g><path d="m174 238c-2.211 0-4-1.791-4-4v-80c0-2.209 1.789-4 4-4s4 1.791 4 4v80c0 2.209-1.789 4-4 4z" fill="#4c241d"/><path d="m222 238c-2.211 0-4-1.791-4-4v-80c0-2.209 1.789-4 4-4s4 1.791 4 4v80c0 2.209-1.789 4-4 4z" fill="#4c241d"/><g><path d="m150 206c-4.418 0-8-3.582-8-8v-44h16v44c0 4.418-3.582 8-8 8z" fill="#6b4f5b"/><path d="m150 210c-6.617 0-12-5.383-12-12v-44c0-2.209 1.789-4 4-4h16c2.211 0 4 1.791 4 4v44c0 6.617-5.383 12-12 12zm-4-52v40c0 2.205 1.793 4 4 4s4-1.795 4-4v-40z" fill="#4c241d"/></g><path d="m150 238c-2.211 0-4-1.791-4-4v-28c0-2.209 1.789-4 4-4s4 1.791 4 4v28c0 2.209-1.789 4-4 4z" fill="#4c241d"/><g><path d="m198 206c-4.418 0-8-3.582-8-8v-44h16v44c0 4.418-3.582 8-8 8z" fill="#6b4f5b"/><path d="m198 210c-6.617 0-12-5.383-12-12v-44c0-2.209 1.789-4 4-4h16c2.211 0 4 1.791 4 4v44c0 6.617-5.383 12-12 12zm-4-52v40c0 2.205 1.793 4 4 4s4-1.795 4-4v-40z" fill="#4c241d"/></g><path d="m198 238c-2.211 0-4-1.791-4-4v-28c0-2.209 1.789-4 4-4s4 1.791 4 4v28c0 2.209-1.789 4-4 4z" fill="#4c241d"/><g><path d="m102 206c-4.418 0-8-3.582-8-8v-44h16v44c0 4.418-3.582 8-8 8z" fill="#6b4f5b"/><path d="m102 210c-6.617 0-12-5.383-12-12v-44c0-2.209 1.789-4 4-4h16c2.211 0 4 1.791 4 4v44c0 6.617-5.383 12-12 12zm-4-52v40c0 2.205 1.793 4 4 4s4-1.795 4-4v-40z" fill="#4c241d"/></g><path d="m102 238c-2.211 0-4-1.791-4-4v-28c0-2.209 1.789-4 4-4s4 1.791 4 4v28c0 2.209-1.789 4-4 4z" fill="#4c241d"/><path d="m126 234c-2.211 0-4-1.791-4-4v-72c0-2.209 1.789-4 4-4s4 1.791 4 4v72c0 2.209-1.789 4-4 4z" fill="#4c241d"/><path d="m78 234c-2.211 0-4-1.791-4-4v-72c0-2.209 1.789-4 4-4s4 1.791 4 4v72c0 2.209-1.789 4-4 4z" fill="#4c241d"/><path d="m150 146c-2.211 0-4-1.791-4-4v-28c0-2.209 1.789-4 4-4s4 1.791 4 4v28c0 2.209-1.789 4-4 4z" fill="#4c241d"/><g><path d="m156 134h-12c-3.314 0-6-2.686-6-6 0-3.314 2.686-6 6-6h12c3.314 0 6 2.686 6 6 0 3.314-2.686 6-6 6z" fill="#e66353"/><path d="m156 138h-12c-5.516 0-10-4.486-10-10s4.484-10 10-10h12c5.516 0 10 4.486 10 10s-4.484 10-10 10zm-12-12c-1.102 0-2 .896-2 2s.898 2 2 2h12c1.102 0 2-.896 2-2s-.898-2-2-2z" fill="#4c241d"/></g><path d="m190 146c-2.211 0-4-1.791-4-4v-28c0-2.209 1.789-4 4-4s4 1.791 4 4v28c0 2.209-1.789 4-4 4z" fill="#4c241d"/><g><path d="m196 142h-12c-3.314 0-6-2.686-6-6 0-3.314 2.686-6 6-6h12c3.314 0 6 2.686 6 6 0 3.314-2.686 6-6 6z" fill="#ffce56"/><path d="m196 146h-12c-5.516 0-10-4.486-10-10s4.484-10 10-10h12c5.516 0 10 4.486 10 10s-4.484 10-10 10zm-12-12c-1.102 0-2 .896-2 2s.898 2 2 2h12c1.102 0 2-.896 2-2s-.898-2-2-2z" fill="#4c241d"/></g><circle cx="64" cy="124" fill="#ffec95" r="6"/><circle cx="80" cy="124" fill="#ffec95" r="6"/></g></svg>